<mxfile host="app.diagrams.net" agent="Mozilla/5.0 (Windows NT 10.0; Win64; x64) AppleWebKit/537.36 (KHTML, like Gecko) Chrome/132.0.0.0 Safari/537.36" version="26.0.11">
  <diagram name="Page-1" id="MfcsM9ajjtlt1VO10cBF">
    <mxGraphModel dx="91" dy="1643" grid="1" gridSize="10" guides="1" tooltips="1" connect="1" arrows="1" fold="1" page="1" pageScale="1" pageWidth="850" pageHeight="1100" math="0" shadow="0">
      <root>
        <mxCell id="0" />
        <mxCell id="1" parent="0" />
        <mxCell id="AW6zBrhfz3zyADZFsurO-190" value="Kidney Disease Management System" style="whiteSpace=wrap;strokeWidth=2;fillColor=#fff2cc;strokeColor=#d6b656;fontStyle=3;fontSize=14;textShadow=0;" vertex="1" parent="1">
          <mxGeometry x="1302" y="140" width="260" height="78" as="geometry" />
        </mxCell>
        <mxCell id="AW6zBrhfz3zyADZFsurO-191" value="المريض" style="whiteSpace=wrap;strokeWidth=2;fillColor=#fff2cc;strokeColor=#d6b656;fontStyle=3;fontSize=14;textShadow=0;" vertex="1" parent="1">
          <mxGeometry x="1290" y="-30" width="111" height="54" as="geometry" />
        </mxCell>
        <mxCell id="AW6zBrhfz3zyADZFsurO-192" value="Doctor" style="whiteSpace=wrap;strokeWidth=2;fillColor=#fff2cc;strokeColor=#d6b656;fontStyle=3;fontSize=14;textShadow=0;" vertex="1" parent="1">
          <mxGeometry x="1280" y="480" width="107" height="54" as="geometry" />
        </mxCell>
        <mxCell id="AW6zBrhfz3zyADZFsurO-193" value="Pharmacy" style="whiteSpace=wrap;strokeWidth=2;fillColor=#fff2cc;strokeColor=#d6b656;fontStyle=3;fontSize=14;textShadow=0;" vertex="1" parent="1">
          <mxGeometry x="1420" y="380" width="129" height="54" as="geometry" />
        </mxCell>
        <mxCell id="AW6zBrhfz3zyADZFsurO-194" value="Hospital" style="whiteSpace=wrap;strokeWidth=2;fillColor=#fff2cc;strokeColor=#d6b656;fontStyle=3;fontSize=14;textShadow=0;" vertex="1" parent="1">
          <mxGeometry x="1600" y="470" width="118" height="54" as="geometry" />
        </mxCell>
        <mxCell id="AW6zBrhfz3zyADZFsurO-195" value="اختصاصي تغذية" style="whiteSpace=wrap;strokeWidth=2;fillColor=#fff2cc;strokeColor=#d6b656;fontStyle=3;fontSize=14;textShadow=0;" vertex="1" parent="1">
          <mxGeometry x="1470" y="-30" width="122" height="54" as="geometry" />
        </mxCell>
        <mxCell id="AW6zBrhfz3zyADZFsurO-196" value="جدولة" style="curved=1;startArrow=none;endArrow=block;exitX=0;exitY=0.75;entryX=0;entryY=0.73;rounded=0;exitDx=0;exitDy=0;fillColor=#fff2cc;strokeColor=#d6b656;fontStyle=3;fontSize=14;textShadow=0;" edge="1" parent="1" source="AW6zBrhfz3zyADZFsurO-191" target="AW6zBrhfz3zyADZFsurO-190">
          <mxGeometry x="-0.5252" y="14" relative="1" as="geometry">
            <Array as="points">
              <mxPoint x="887" y="254" />
            </Array>
            <mxPoint as="offset" />
          </mxGeometry>
        </mxCell>
        <mxCell id="AW6zBrhfz3zyADZFsurO-197" value="متابة الصحة" style="curved=1;startArrow=none;endArrow=block;entryX=0;entryY=0.79;rounded=0;exitX=0.25;exitY=1;exitDx=0;exitDy=0;fillColor=#fff2cc;strokeColor=#d6b656;fontStyle=3;fontSize=14;textShadow=0;" edge="1" parent="1" source="AW6zBrhfz3zyADZFsurO-191" target="AW6zBrhfz3zyADZFsurO-190">
          <mxGeometry x="-0.5814" y="3" relative="1" as="geometry">
            <Array as="points">
              <mxPoint x="995" y="254" />
            </Array>
            <mxPoint x="1320" y="40" as="sourcePoint" />
            <mxPoint x="-1" as="offset" />
          </mxGeometry>
        </mxCell>
        <mxCell id="AW6zBrhfz3zyADZFsurO-198" value="اشعارات" style="curved=1;startArrow=none;endArrow=block;exitX=0;exitY=0.7;entryX=0;entryY=0.25;rounded=0;entryDx=0;entryDy=0;fillColor=#fff2cc;strokeColor=#d6b656;fontStyle=3;fontSize=14;textShadow=0;" edge="1" parent="1" source="AW6zBrhfz3zyADZFsurO-190" target="AW6zBrhfz3zyADZFsurO-191">
          <mxGeometry x="0.6476" y="-7" relative="1" as="geometry">
            <Array as="points">
              <mxPoint x="800" y="254" />
            </Array>
            <mxPoint as="offset" />
          </mxGeometry>
        </mxCell>
        <mxCell id="AW6zBrhfz3zyADZFsurO-199" value="Prescribes Medications" style="curved=1;startArrow=none;endArrow=block;exitX=0.81;exitY=0.01;entryX=0.18;entryY=1;rounded=0;fillColor=#fff2cc;strokeColor=#d6b656;fontStyle=3;fontSize=14;textShadow=0;" edge="1" parent="1" source="AW6zBrhfz3zyADZFsurO-192" target="AW6zBrhfz3zyADZFsurO-190">
          <mxGeometry x="-0.1608" y="-9" relative="1" as="geometry">
            <Array as="points">
              <mxPoint x="1272" y="254" />
            </Array>
            <mxPoint as="offset" />
          </mxGeometry>
        </mxCell>
        <mxCell id="AW6zBrhfz3zyADZFsurO-200" value="Sends Reports" style="curved=1;startArrow=none;endArrow=block;exitX=0;exitY=0.9;entryX=0.19;entryY=0.01;rounded=0;fillColor=#fff2cc;strokeColor=#d6b656;fontStyle=3;fontSize=14;textShadow=0;" edge="1" parent="1" source="AW6zBrhfz3zyADZFsurO-190" target="AW6zBrhfz3zyADZFsurO-192">
          <mxGeometry x="0.2754" y="27" relative="1" as="geometry">
            <Array as="points">
              <mxPoint x="1117" y="254" />
            </Array>
            <mxPoint as="offset" />
          </mxGeometry>
        </mxCell>
        <mxCell id="AW6zBrhfz3zyADZFsurO-201" value="Supplies Medicines" style="curved=1;startArrow=none;endArrow=block;exitX=0.74;exitY=0.01;entryX=0.79;entryY=1;rounded=0;fillColor=#fff2cc;strokeColor=#d6b656;fontStyle=3;fontSize=14;textShadow=0;" edge="1" parent="1" source="AW6zBrhfz3zyADZFsurO-193" target="AW6zBrhfz3zyADZFsurO-190">
          <mxGeometry x="-0.04" y="13" relative="1" as="geometry">
            <Array as="points">
              <mxPoint x="1577" y="254" />
            </Array>
            <mxPoint as="offset" />
          </mxGeometry>
        </mxCell>
        <mxCell id="AW6zBrhfz3zyADZFsurO-202" value="Manages Refills" style="curved=1;startArrow=none;endArrow=block;exitX=0.5;exitY=1;entryX=0.26;entryY=0.01;rounded=0;fillColor=#fff2cc;strokeColor=#d6b656;fontStyle=3;fontSize=14;textShadow=0;" edge="1" parent="1" source="AW6zBrhfz3zyADZFsurO-190" target="AW6zBrhfz3zyADZFsurO-193">
          <mxGeometry relative="1" as="geometry">
            <Array as="points">
              <mxPoint x="1432" y="254" />
            </Array>
          </mxGeometry>
        </mxCell>
        <mxCell id="AW6zBrhfz3zyADZFsurO-203" value="Provides Dialysis" style="curved=1;startArrow=none;endArrow=block;exitX=0.81;exitY=0.01;entryX=1;entryY=0.75;rounded=0;fillColor=#fff2cc;strokeColor=#d6b656;fontStyle=3;fontSize=14;textShadow=0;" edge="1" parent="1" source="AW6zBrhfz3zyADZFsurO-194" target="AW6zBrhfz3zyADZFsurO-190">
          <mxGeometry x="-0.4958" y="44" relative="1" as="geometry">
            <Array as="points">
              <mxPoint x="1924" y="254" />
            </Array>
            <mxPoint as="offset" />
          </mxGeometry>
        </mxCell>
        <mxCell id="AW6zBrhfz3zyADZFsurO-204" value="Schedules Appointments" style="curved=1;startArrow=none;endArrow=block;exitX=1;exitY=0.89;entryX=0.2;entryY=0.01;rounded=0;fillColor=#fff2cc;strokeColor=#d6b656;fontStyle=3;fontSize=14;textShadow=0;" edge="1" parent="1" source="AW6zBrhfz3zyADZFsurO-190" target="AW6zBrhfz3zyADZFsurO-194">
          <mxGeometry x="0.513" y="-12" relative="1" as="geometry">
            <Array as="points">
              <mxPoint x="1755" y="254" />
            </Array>
            <mxPoint as="offset" />
          </mxGeometry>
        </mxCell>
        <mxCell id="AW6zBrhfz3zyADZFsurO-205" value="كتابة برامج التغذية" style="curved=1;startArrow=none;endArrow=block;exitX=1;exitY=0.5;entryX=1;entryY=0.66;rounded=0;exitDx=0;exitDy=0;fillColor=#fff2cc;strokeColor=#d6b656;fontStyle=3;fontSize=14;textShadow=0;" edge="1" parent="1" source="AW6zBrhfz3zyADZFsurO-195" target="AW6zBrhfz3zyADZFsurO-190">
          <mxGeometry x="-0.6004" y="-12" relative="1" as="geometry">
            <Array as="points">
              <mxPoint x="2219" y="254" />
            </Array>
            <mxPoint as="offset" />
          </mxGeometry>
        </mxCell>
        <mxCell id="AW6zBrhfz3zyADZFsurO-206" value="يراقب التغذية" style="curved=1;startArrow=none;endArrow=block;exitX=1;exitY=0.7;entryX=0.75;entryY=1;rounded=0;entryDx=0;entryDy=0;fillColor=#fff2cc;strokeColor=#d6b656;fontStyle=3;fontSize=14;textShadow=0;" edge="1" parent="1" source="AW6zBrhfz3zyADZFsurO-190" target="AW6zBrhfz3zyADZFsurO-195">
          <mxGeometry x="0.5636" y="9" relative="1" as="geometry">
            <Array as="points">
              <mxPoint x="2072" y="254" />
            </Array>
            <mxPoint as="offset" />
          </mxGeometry>
        </mxCell>
      </root>
    </mxGraphModel>
  </diagram>
</mxfile>
